<?xml version="1.0" encoding="UTF-8"?>
<svg width="762px" height="462px" viewBox="0 0 762 462" version="1.1" xmlns="http://www.w3.org/2000/svg" xmlns:xlink="http://www.w3.org/1999/xlink">
    <!-- Generator: Sketch 51.2 (57519) - http://www.bohemiancoding.com/sketch -->
    <title>genblue-alt</title>
    <desc>Created with Sketch.</desc>
    <defs></defs>
    <g id="genblue-alt" stroke="none" stroke-width="1" fill="none" fill-rule="evenodd">
        <g id="gen_blue_rgb" transform="translate(55.000000, 37.000000)" fill="#008CFF" fill-rule="nonzero">
            <g id="Text" transform="translate(0.000000, 300.000000)">
                <path d="M63.715,4.861 C69.679,7.842 74.605,12.012 78.494,17.372 L73.436,21.391 C66.264,11.538 56.583,6.611 44.396,6.611 C33.855,6.611 25.08,10.22 18.08,17.437 C11.081,24.654 7.576,33.62 7.576,44.338 C7.576,55.141 11.081,64.173 18.08,71.433 C25.08,78.694 33.941,82.323 44.655,82.323 C51.312,82.323 57.359,80.811 62.809,77.786 C68.252,74.761 72.573,70.656 75.772,65.469 L75.772,51.337 L44.27,51.337 L44.27,45.115 L82.513,45.115 L82.513,66.895 C78.796,73.637 73.522,78.931 66.698,82.778 C59.868,86.623 52.394,88.545 44.27,88.545 C31.996,88.545 21.622,84.29 13.152,75.776 C4.682,67.263 0.447,56.827 0.447,44.467 C0.447,32.022 4.682,21.564 13.152,13.094 C21.622,4.623 31.996,0.388 44.27,0.388 C51.269,0.388 57.751,1.88 63.715,4.861" id="Fill-1"></path>
                <polyline id="Fill-2" points="171.444 7.777 124.644 7.777 124.644 37.986 161.075 37.986 161.075 44.078 124.644 44.078 124.644 81.157 173 81.157 173 87.25 117.903 87.25 117.903 1.684 171.444 1.684 171.444 7.777"></polyline>
                <polyline id="Fill-3" points="270.142 1.684 270.142 88.545 267.42 88.545 210.766 15.945 210.766 87.25 204.023 87.25 204.023 0.388 206.618 0.388 263.398 73.249 263.398 1.684 270.142 1.684"></polyline>
                <path d="M354.564,69.359 C356.725,67.458 357.803,64.821 357.803,61.451 C357.803,58.167 356.725,55.551 354.564,53.608 C352.404,51.663 349.42,50.691 345.617,50.691 L325.653,50.691 L325.653,72.211 L345.617,72.211 C349.42,72.211 352.404,71.261 354.564,69.359 Z M325.653,16.723 L325.653,36.299 L337.71,36.299 C341.255,36.299 343.997,35.414 345.942,33.642 C347.886,31.871 348.859,29.471 348.859,26.446 C348.859,23.421 347.886,21.044 345.942,19.317 C343.997,17.588 341.255,16.723 337.71,16.723 L325.653,16.723 Z M371.095,49.004 C373.731,52.635 375.048,57 375.048,62.099 C375.048,69.532 372.433,75.583 367.206,80.249 C361.975,84.917 355.211,87.25 346.915,87.25 L308.797,87.25 L308.797,1.684 L339.138,1.684 C347.086,1.684 353.591,3.911 358.65,8.361 C363.702,12.812 366.233,18.539 366.233,25.54 C366.233,31.763 364.116,36.904 359.881,40.966 C364.72,42.695 368.458,45.376 371.095,49.004 Z" id="Fill-4"></path>
                <polyline id="Fill-5" points="422.429 71.433 459.897 71.433 459.897 87.25 404.929 87.25 404.929 1.684 422.429 1.684 422.429 71.433"></polyline>
                <path d="M557.145,51.857 C557.145,63.093 553.75,72.059 546.965,78.758 C540.182,85.456 531.473,88.805 520.842,88.805 C510.209,88.805 501.503,85.456 494.719,78.758 C487.936,72.059 484.541,63.093 484.541,51.857 L484.541,1.684 L502.044,1.684 L502.044,53.153 C502.044,59.377 503.793,64.173 507.295,67.544 C510.796,70.915 515.31,72.6 520.842,72.6 C526.458,72.6 530.999,70.915 534.457,67.544 C537.912,64.173 539.641,59.377 539.641,53.153 L539.641,1.684 L557.145,1.684 L557.145,51.857" id="Fill-6"></path>
                <polyline id="Fill-7" points="649.461 17.502 609.399 17.502 609.399 34.873 638.828 34.873 638.828 49.783 609.399 49.783 609.399 71.433 651.015 71.433 651.015 87.25 591.899 87.25 591.899 1.684 649.461 1.684 649.461 17.502"></polyline>
            </g>
            <g id="Logo" transform="translate(203.000000, 0.000000)">
                <path d="M153.013,90.621 C139.56,97.382 130.448,111.101 129.893,126.662 C143.196,119.954 152.466,106.376 153.013,90.621 Z M122.427,245.001 C122.114,245.001 121.803,244.986 121.492,244.958 L118.621,244.696 C113.31,244.212 109.245,239.758 109.245,234.427 L109.245,151.728 C97.323,151.39 85.861,147.707 75.987,141.023 C71.272,137.83 70.038,131.419 73.228,126.705 C76.421,121.987 82.832,120.756 87.547,123.945 C93.994,128.311 101.463,130.765 109.245,131.094 L109.245,128.165 C109.245,98.321 130.405,72.548 159.607,66.752 C161.414,66.348 163.33,66.42 165.145,67.027 C168.692,68.21 171.253,71.183 171.986,74.713 C173.097,79.425 173.661,84.279 173.661,89.144 C173.661,117.114 155.225,140.859 129.867,148.866 L129.867,224.108 C182.545,220.287 224.232,176.209 224.232,122.574 C224.232,66.439 178.563,20.769 122.427,20.769 C66.292,20.769 20.622,66.439 20.622,122.574 C20.622,160.275 41.308,194.722 74.609,212.473 C79.635,215.155 81.537,221.398 78.858,226.423 C76.18,231.453 69.928,233.345 64.908,230.673 C24.872,209.329 0,167.907 0,122.574 C0,55.067 54.922,0.147 122.427,0.147 C189.933,0.147 244.855,55.067 244.855,122.574 C244.855,190.081 189.933,245.001 122.427,245.001 Z" id="Fill-9"></path>
            </g>
        </g>
    </g>
</svg>