<?xml version="1.0" encoding="UTF-8"?>
<svg width="950px" height="254px" viewBox="0 0 950 254" version="1.1" xmlns="http://www.w3.org/2000/svg" xmlns:xlink="http://www.w3.org/1999/xlink">
    <!-- Generator: Sketch 51.2 (57519) - http://www.bohemiancoding.com/sketch -->
    <title>genblue-white</title>
    <desc>Created with Sketch.</desc>
    <defs></defs>
    <g id="genblue-white" stroke="none" stroke-width="1" fill="none" fill-rule="evenodd">
        <g id="gen_blue_rgb" transform="translate(6.000000, 4.000000)" fill="#FFFFFF" fill-rule="nonzero">
            <path d="M347.715,91.861 C353.679,94.842 358.605,99.012 362.494,104.372 L357.436,108.391 C350.264,98.538 340.583,93.611 328.396,93.611 C317.855,93.611 309.08,97.22 302.08,104.437 C295.081,111.654 291.576,120.62 291.576,131.338 C291.576,142.141 295.081,151.173 302.08,158.433 C309.08,165.694 317.941,169.323 328.655,169.323 C335.312,169.323 341.359,167.811 346.809,164.786 C352.252,161.761 356.573,157.656 359.772,152.469 L359.772,138.337 L328.27,138.337 L328.27,132.115 L366.513,132.115 L366.513,153.895 C362.796,160.637 357.522,165.931 350.698,169.778 C343.868,173.623 336.394,175.545 328.27,175.545 C315.996,175.545 305.622,171.29 297.152,162.776 C288.682,154.263 284.447,143.827 284.447,131.467 C284.447,119.022 288.682,108.564 297.152,100.094 C305.622,91.623 315.996,87.388 328.27,87.388 C335.269,87.388 341.751,88.88 347.715,91.861" id="Fill-1"></path>
            <polyline id="Fill-2" points="455.444 94.777 408.644 94.777 408.644 124.986 445.075 124.986 445.075 131.078 408.644 131.078 408.644 168.157 457 168.157 457 174.25 401.903 174.25 401.903 88.684 455.444 88.684 455.444 94.777"></polyline>
            <polyline id="Fill-3" points="554.142 88.684 554.142 175.545 551.42 175.545 494.766 102.945 494.766 174.25 488.023 174.25 488.023 87.388 490.618 87.388 547.398 160.249 547.398 88.684 554.142 88.684"></polyline>
            <path d="M638.564,156.359 C640.725,154.458 641.803,151.821 641.803,148.451 C641.803,145.167 640.725,142.551 638.564,140.608 C636.404,138.663 633.42,137.691 629.617,137.691 L609.653,137.691 L609.653,159.211 L629.617,159.211 C633.42,159.211 636.404,158.261 638.564,156.359 Z M609.653,103.723 L609.653,123.299 L621.71,123.299 C625.255,123.299 627.997,122.414 629.942,120.642 C631.886,118.871 632.859,116.471 632.859,113.446 C632.859,110.421 631.886,108.044 629.942,106.317 C627.997,104.588 625.255,103.723 621.71,103.723 L609.653,103.723 Z M655.095,136.004 C657.731,139.635 659.048,144 659.048,149.099 C659.048,156.532 656.433,162.583 651.206,167.249 C645.975,171.917 639.211,174.25 630.915,174.25 L592.797,174.25 L592.797,88.684 L623.138,88.684 C631.086,88.684 637.591,90.911 642.65,95.361 C647.702,99.812 650.233,105.539 650.233,112.54 C650.233,118.763 648.116,123.904 643.881,127.966 C648.72,129.695 652.458,132.376 655.095,136.004 Z" id="Fill-4"></path>
            <polyline id="Fill-5" points="706.429 158.433 743.897 158.433 743.897 174.25 688.929 174.25 688.929 88.684 706.429 88.684 706.429 158.433"></polyline>
            <path d="M841.145,138.857 C841.145,150.093 837.75,159.059 830.965,165.758 C824.182,172.456 815.473,175.805 804.842,175.805 C794.209,175.805 785.503,172.456 778.719,165.758 C771.936,159.059 768.541,150.093 768.541,138.857 L768.541,88.684 L786.044,88.684 L786.044,140.153 C786.044,146.377 787.793,151.173 791.295,154.544 C794.796,157.915 799.31,159.6 804.842,159.6 C810.458,159.6 814.999,157.915 818.457,154.544 C821.912,151.173 823.641,146.377 823.641,140.153 L823.641,88.684 L841.145,88.684 L841.145,138.857" id="Fill-6"></path>
            <polyline id="Fill-7" points="933.461 104.502 893.399 104.502 893.399 121.873 922.828 121.873 922.828 136.783 893.399 136.783 893.399 158.433 935.015 158.433 935.015 174.25 875.899 174.25 875.899 88.684 933.461 88.684 933.461 104.502"></polyline>
            <path d="M153.013,90.621 C139.56,97.382 130.448,111.101 129.893,126.662 C143.196,119.954 152.466,106.376 153.013,90.621 Z M122.427,245.001 C122.114,245.001 121.803,244.986 121.492,244.958 L118.621,244.696 C113.31,244.212 109.245,239.758 109.245,234.427 L109.245,151.728 C97.323,151.39 85.861,147.707 75.987,141.023 C71.272,137.83 70.038,131.419 73.228,126.705 C76.421,121.987 82.832,120.756 87.547,123.945 C93.994,128.311 101.463,130.765 109.245,131.094 L109.245,128.165 C109.245,98.321 130.405,72.548 159.607,66.752 C161.414,66.348 163.33,66.42 165.145,67.027 C168.692,68.21 171.253,71.183 171.986,74.713 C173.097,79.425 173.661,84.279 173.661,89.144 C173.661,117.114 155.225,140.859 129.867,148.866 L129.867,224.108 C182.545,220.287 224.232,176.209 224.232,122.574 C224.232,66.439 178.563,20.769 122.427,20.769 C66.292,20.769 20.622,66.439 20.622,122.574 C20.622,160.275 41.308,194.722 74.609,212.473 C79.635,215.155 81.537,221.398 78.858,226.423 C76.18,231.453 69.928,233.345 64.908,230.673 C24.872,209.329 0,167.907 0,122.574 C0,55.067 54.922,0.147 122.427,0.147 C189.933,0.147 244.855,55.067 244.855,122.574 C244.855,190.081 189.933,245.001 122.427,245.001 Z" id="Fill-9"></path>
        </g>
    </g>
</svg>