<?xml version="1.0" encoding="UTF-8"?>
<svg width="245px" height="245px" viewBox="0 0 245 245" version="1.1" xmlns="http://www.w3.org/2000/svg" xmlns:xlink="http://www.w3.org/1999/xlink">
    <!-- Generator: Sketch 51.2 (57519) - http://www.bohemiancoding.com/sketch -->
    <title>genblue-icon-white</title>
    <desc>Created with Sketch.</desc>
    <defs></defs>
    <g id="genblue-icon-white" stroke="none" stroke-width="1" fill="none" fill-rule="evenodd">
        <path d="M153.013,90.474 C139.56,97.235 130.448,110.954 129.893,126.515 C143.196,119.807 152.466,106.229 153.013,90.474 Z M122.427,244.854 C122.114,244.854 121.803,244.839 121.492,244.811 L118.621,244.549 C113.31,244.065 109.245,239.611 109.245,234.28 L109.245,151.581 C97.323,151.243 85.861,147.56 75.987,140.876 C71.272,137.683 70.038,131.272 73.228,126.558 C76.421,121.84 82.832,120.609 87.547,123.798 C93.994,128.164 101.463,130.618 109.245,130.947 L109.245,128.018 C109.245,98.174 130.405,72.401 159.607,66.605 C161.414,66.201 163.33,66.273 165.145,66.88 C168.692,68.063 171.253,71.036 171.986,74.566 C173.097,79.278 173.661,84.132 173.661,88.997 C173.661,116.967 155.225,140.712 129.867,148.719 L129.867,223.961 C182.545,220.14 224.232,176.062 224.232,122.427 C224.232,66.292 178.563,20.622 122.427,20.622 C66.292,20.622 20.622,66.292 20.622,122.427 C20.622,160.128 41.308,194.575 74.609,212.326 C79.635,215.008 81.537,221.251 78.858,226.276 C76.18,231.306 69.928,233.198 64.908,230.526 C24.872,209.182 0,167.76 0,122.427 C0,54.92 54.922,0 122.427,0 C189.933,0 244.855,54.92 244.855,122.427 C244.855,189.934 189.933,244.854 122.427,244.854 Z" id="Fill-9" fill="#FFFFFF" fill-rule="nonzero"></path>
    </g>
</svg>